<svg width="166" height="154" viewBox="0 0 166 154" fill="none" xmlns="http://www.w3.org/2000/svg">
<path opacity="0.2" d="M152.494 124.29C147.654 120.168 141.974 117.098 136.032 114.867C122.82 110.156 108.568 110.357 95.5636 104.665C86.0815 100.459 77.4582 93.0556 74.4081 83.1677C71.9717 75.3548 73.13 67.0275 72.6354 58.9036C71.1621 29.5106 45.6275 3.14396 16.2753 0.406077C3.92934 -0.677883 -13.0058 2.24808 -22.4101 10.7632C-29.8269 17.5522 -34.0926 27.6932 -33.6256 37.7192C-32.9607 50.4682 -25.1966 62.3866 -25.9948 75.1863C-26.6937 88.0313 -35.3488 98.3242 -45.9447 104.979C-54.5353 110.395 -64.2544 114.339 -72.2762 120.613C-80.298 126.886 -86.7222 136.761 -85.1805 146.798C-83.4314 158.486 -72.1168 166.041 -61.9307 172.123C-49.0987 179.771 -21.9882 189.265 -14.8388 203.057C-6.58809 218.907 -21.45 237.02 -25.3556 251.633C-30.554 270.922 -17.9253 295.591 1.49119 301.695C14.4867 305.827 29.7693 301.789 38.9752 291.867C49.8254 280.182 51.7808 263.003 58.6758 248.676C64.2063 237.078 73.4302 227.643 84.3693 221.024C96.4557 213.733 105.866 214.674 118.692 212.866C142.934 209.443 162.856 182.868 165.183 159.876C166.025 150.926 164.899 141.557 160.313 133.721C158.273 130.038 155.618 126.912 152.494 124.29Z" fill="#778CEB"/>
</svg>
