<svg width="221" height="112" viewBox="0 0 221 112" fill="none" xmlns="http://www.w3.org/2000/svg">
<path opacity="0.2" d="M182.428 -115.04C176.538 -112.648 171.194 -109.025 166.472 -104.783C156.198 -95.2339 149.8 -82.4967 138.75 -73.5857C130.645 -67.1134 120.097 -62.8787 109.918 -64.7346C101.862 -66.1776 95.0081 -71.0472 87.5724 -74.3566C60.815 -86.6105 25.6414 -76.121 9.67003 -51.3427C3.01223 -40.8893 -2.20524 -24.5144 1.0106 -12.2422C3.61188 -2.52974 10.641 5.93357 19.7516 10.145C31.3694 15.4371 45.5256 14.0476 56.5133 20.6612C67.587 27.2076 72.7257 39.6353 73.7416 52.1066C74.5832 62.2269 73.5979 72.6693 75.4629 82.6808C77.3279 92.6923 83.1246 102.948 92.7413 106.211C103.918 110.052 115.84 103.498 125.936 97.2675C138.642 89.4116 159.573 69.7392 175.108 69.7595C192.977 69.7522 202.19 91.2944 213.353 101.502C228.068 115.013 255.781 115.19 270.154 100.78C279.817 91.1571 283.284 75.7349 278.729 62.9896C273.368 47.9721 259.029 38.3116 249.5 25.5843C241.761 15.3264 237.646 2.78978 236.821 -9.969C235.928 -24.0563 241.105 -31.9711 245.418 -44.1844C253.566 -67.2711 239.18 -97.2068 219.855 -109.88C212.303 -114.756 203.47 -118.08 194.402 -117.626C190.194 -117.515 186.196 -116.602 182.428 -115.04Z" fill="#FFB27D"/>
</svg>
