<svg width="163" height="174" viewBox="0 0 163 174" fill="none" xmlns="http://www.w3.org/2000/svg">
<path opacity="0.2" d="M130.593 50.0002C124.384 48.6332 117.928 48.5903 111.633 49.4101C97.7568 51.4554 85.268 58.3249 71.1138 59.4054C60.7673 60.1449 49.6773 57.6572 42.3414 50.3594C36.5216 44.6055 33.6341 36.7094 29.3827 29.7691C14.2801 4.5099 -20.6451 -6.77915 -47.8458 4.5863C-59.255 9.4265 -72.8332 19.962 -77.1378 31.8959C-80.4982 41.3725 -79.5025 52.329 -74.3824 60.9616C-67.8088 71.9055 -55.3575 78.7826 -50.052 90.4582C-44.6375 102.127 -47.4459 115.279 -53.676 126.13C-58.7175 134.946 -65.4467 142.991 -69.5833 152.297C-73.7199 161.603 -74.7551 173.338 -68.6806 181.476C-61.6482 190.974 -48.1112 192.33 -36.2619 192.917C-21.3413 193.645 7.05257 189.297 19.841 198.117C34.5682 208.237 29.9516 231.207 33.3652 245.943C37.8331 265.414 60.5663 281.264 80.5754 277.536C93.9896 275.082 105.586 264.34 109.055 251.258C113.148 235.846 106.808 219.761 106.168 203.874C105.605 191.037 109.318 178.376 115.869 167.396C123.116 155.282 131.867 151.695 142.341 144.076C162.137 129.671 167.247 96.8533 158.506 75.4607C155.047 67.1631 149.653 59.4198 141.924 54.6548C138.394 52.3611 134.582 50.848 130.593 50.0002Z" fill="#8DC63F"/>
</svg>
