<svg width="15" height="15" viewBox="0 0 15 15" fill="none" xmlns="http://www.w3.org/2000/svg">
<g id="percent 1" clip-path="url(#clip0_7_379)">
<path id="Vector" d="M3.09819 7.18763C3.81434 7.18706 4.50814 6.93821 5.06139 6.48348C5.61465 6.02875 5.99313 5.39626 6.13236 4.69378C6.27159 3.99129 6.16296 3.26226 5.82497 2.63089C5.48699 1.99951 4.94055 1.50485 4.27876 1.23117C3.61696 0.957491 2.88075 0.921726 2.19555 1.12997C1.51034 1.33821 0.91853 1.77758 0.520933 2.37322C0.123336 2.96886 -0.0554491 3.68392 0.0150349 4.3966C0.0855189 5.10927 0.400912 5.77546 0.907484 6.28168C1.19499 6.5695 1.53653 6.7977 1.91247 6.95317C2.28841 7.10864 2.69136 7.18831 3.09819 7.18763ZM2.23328 3.22604C2.43338 3.02596 2.69667 2.90145 2.97828 2.87372C3.25989 2.84599 3.5424 2.91676 3.77768 3.07398C4.01296 3.2312 4.18645 3.46513 4.26858 3.73592C4.35072 4.00671 4.33642 4.2976 4.22813 4.55903C4.11984 4.82046 3.92425 5.03626 3.67469 5.16965C3.42513 5.30304 3.13703 5.34577 2.8595 5.29056C2.58197 5.23535 2.33216 5.08562 2.15264 4.86688C1.97313 4.64814 1.87501 4.37392 1.87501 4.09095C1.87457 3.93025 1.90601 3.77107 1.9675 3.62261C2.029 3.47414 2.11934 3.33936 2.23328 3.22604ZM11.9019 7.81083C11.1851 7.81082 10.4905 8.05934 9.93637 8.51406C9.38228 8.96878 9.003 9.60155 8.86315 10.3046C8.7233 11.0076 8.83154 11.7373 9.16943 12.3695C9.50731 13.0016 10.0539 13.4971 10.7162 13.7714C11.3784 14.0457 12.1152 14.0819 12.8012 13.8738C13.4871 13.6658 14.0796 13.2263 14.4779 12.6303C14.8761 12.0343 15.0554 11.3187 14.9851 10.6054C14.9148 9.89202 14.5994 9.22512 14.0926 8.71827C13.8056 8.42967 13.4642 8.20087 13.0881 8.0451C12.7121 7.88934 12.3089 7.80971 11.9019 7.81083ZM12.7667 11.7739C12.5371 12.0018 12.2264 12.1295 11.9028 12.1289C11.5792 12.1283 11.269 11.9995 11.0402 11.7706C10.8114 11.5418 10.6826 11.2316 10.682 10.908C10.6814 10.5844 10.809 10.2738 11.037 10.0441C11.1504 9.92982 11.2853 9.83907 11.4338 9.77703C11.5824 9.715 11.7418 9.68291 11.9028 9.68261C12.0638 9.68231 12.2233 9.71381 12.3721 9.77529C12.5209 9.83677 12.6561 9.92702 12.77 10.0409C12.8838 10.1547 12.9741 10.2899 13.0356 10.4388C13.097 10.5876 13.1285 10.7471 13.1282 10.9081C13.1279 11.0691 13.0958 11.2285 13.0338 11.377C12.9718 11.5256 12.881 11.6605 12.7667 11.7739L12.7667 11.7739ZM13.7326 1.26737C13.8197 1.35443 13.8887 1.45778 13.9358 1.57152C13.9829 1.68526 14.0072 1.80717 14.0072 1.93029C14.0072 2.0534 13.9829 2.17531 13.9358 2.28906C13.8887 2.4028 13.8197 2.50615 13.7326 2.5932L2.59328 13.7325C2.41724 13.9072 2.17914 14.0051 1.93112 14.0046C1.6831 14.0041 1.44538 13.9054 1.27001 13.73C1.09464 13.5546 0.995906 13.3169 0.995433 13.0689C0.994959 12.8209 1.09278 12.5828 1.26748 12.4067L12.4068 1.26737C12.5826 1.09157 12.8211 0.992798 13.0697 0.992798C13.3183 0.992798 13.5568 1.09157 13.7326 1.26737Z" fill="white"/>
</g>
<defs>
<clipPath id="clip0_7_379">
<rect width="15" height="15" fill="white"/>
</clipPath>
</defs>
</svg>
