<svg width="525" height="349" viewBox="0 0 525 349" fill="none" xmlns="http://www.w3.org/2000/svg">
<g opacity="0.3">
<path fill-rule="evenodd" clip-rule="evenodd" d="M474.131 359.728C474.131 328.447 477.243 300.295 481.393 281.526H508.367C512.517 300.295 515.63 328.447 515.63 359.728C515.63 392.052 512.517 420.204 508.367 440.016H482.431C476.206 421.247 474.131 392.052 474.131 359.728Z" fill="white"/>
<path fill-rule="evenodd" clip-rule="evenodd" d="M414.997 127.209C428.484 85.5009 454.42 51.092 480.357 17.7258C483.469 12.5123 488.657 7.29885 493.844 0C500.069 7.29885 504.219 12.5123 508.369 17.7258C534.305 52.1347 559.204 86.5435 573.729 127.209C590.328 177.258 573.729 209.581 522.893 224.179C497.994 231.478 497.994 231.478 497.994 257.545C497.994 257.545 497.994 257.545 497.994 258.588C501.106 261.716 503.181 267.972 506.294 276.314H482.432C484.507 267.972 487.619 261.716 489.694 258.588C489.694 258.588 489.694 258.588 489.694 257.545C489.694 231.478 489.694 231.478 464.795 224.179C414.997 210.624 397.36 177.258 414.997 127.209Z" fill="white"/>
<path fill-rule="evenodd" clip-rule="evenodd" d="M505.255 446.274C502.143 457.744 497.993 464 493.843 464C489.693 464 485.543 457.744 482.431 446.274H505.255Z" fill="white"/>
<path fill-rule="evenodd" clip-rule="evenodd" d="M166.004 325.32C166.004 302.381 168.079 281.527 171.191 267.972H190.903C194.015 281.527 196.09 302.381 196.09 325.32C196.09 349.302 194.015 370.156 190.903 383.711H172.228C168.079 370.156 166.004 349.302 166.004 325.32Z" fill="white"/>
<path fill-rule="evenodd" clip-rule="evenodd" d="M122.43 155.36C132.805 125.122 151.479 100.098 170.154 75.0729C173.266 70.9021 176.378 67.774 180.528 62.5605C184.678 67.774 187.791 71.9448 190.903 75.0729C209.577 100.098 228.252 125.122 238.626 155.36C251.076 191.855 238.626 215.836 201.278 226.263C182.603 231.477 182.603 231.477 183.641 250.245C185.716 252.331 187.79 256.501 188.828 262.758H172.229C174.303 256.501 175.341 252.331 177.416 250.245C177.416 231.477 177.416 231.477 159.779 226.263C122.43 215.836 109.981 191.855 122.43 155.36Z" fill="white"/>
<path fill-rule="evenodd" clip-rule="evenodd" d="M188.828 388.925C186.753 397.266 183.641 401.437 180.529 401.437C177.416 401.437 174.304 396.224 172.229 388.925H188.828Z" fill="white"/>
<path fill-rule="evenodd" clip-rule="evenodd" d="M41.5081 311.767C41.5081 291.956 43.583 274.23 45.658 262.76H62.2574C65.3698 274.23 66.4072 291.956 66.4072 311.767C66.4072 331.578 64.3323 350.347 62.2574 361.816H45.658C43.583 350.347 41.5081 332.621 41.5081 311.767Z" fill="white"/>
<path fill-rule="evenodd" clip-rule="evenodd" d="M4.1593 166.831C12.459 140.764 29.0585 118.867 44.6204 98.0136C46.6954 94.8855 49.8077 91.7574 53.9576 86.5439C58.1074 90.7147 60.1824 93.8428 63.2948 98.0136C79.8942 118.867 95.4562 140.764 103.756 166.831C114.131 198.112 103.756 218.966 71.5945 227.308C56.0326 231.478 56.0326 231.478 56.0326 248.161C58.1075 250.247 59.145 253.375 61.2199 258.588H46.6954C47.7328 253.375 49.8077 249.204 51.8827 248.161C51.8827 231.478 51.8827 231.478 36.3207 227.308C5.19678 217.923 -6.21533 198.112 4.1593 166.831Z" fill="white"/>
<path fill-rule="evenodd" clip-rule="evenodd" d="M61.2188 365.985C59.1439 373.283 57.0688 377.454 53.9565 377.454C50.8441 377.454 48.7692 373.283 46.6943 365.985H61.2188Z" fill="white"/>
<path fill-rule="evenodd" clip-rule="evenodd" d="M308.137 340.961C308.137 313.851 310.212 290.912 314.361 274.229H337.186C341.336 289.869 343.411 313.851 343.411 340.961C343.411 368.071 341.336 393.096 337.186 408.736H315.399C311.249 393.096 308.137 368.071 308.137 340.961Z" fill="white"/>
<path fill-rule="evenodd" clip-rule="evenodd" d="M258.338 142.849C269.75 107.398 291.537 78.2023 313.323 49.0069C316.436 44.8361 320.586 39.6226 325.773 34.4092C330.96 40.6653 334.073 44.8361 338.223 49.0069C360.009 78.2023 381.796 107.398 393.208 142.849C407.733 185.6 393.208 213.752 349.635 225.222C328.885 231.478 328.885 231.478 328.885 253.375C330.96 255.46 333.035 260.674 335.11 267.973H315.398C317.473 260.674 319.548 255.46 321.623 253.375C321.623 231.478 321.623 231.478 300.874 225.222C258.338 213.752 243.813 185.6 258.338 142.849Z" fill="white"/>
<path fill-rule="evenodd" clip-rule="evenodd" d="M335.109 413.947C331.997 423.332 328.885 428.545 325.772 428.545C322.66 428.545 318.51 423.332 316.435 413.947H335.109Z" fill="white"/>
</g>
</svg>
