<svg width="140" height="108" viewBox="0 0 140 108" fill="none" xmlns="http://www.w3.org/2000/svg">
<g id="Frame" clip-path="url(#clip0_3500_553)">
<g id="Group">
<g id="Group_2">
<g id="Group_3">
<path id="Vector" fill-rule="evenodd" clip-rule="evenodd" d="M72.181 39.7228C72.181 36.2686 71.8367 33.1599 71.3777 31.0874H68.3941C67.9351 33.1599 67.5908 36.2686 67.5908 39.7228C67.5908 43.2921 67.9351 46.4008 68.3941 48.5885H71.2629C71.9515 46.516 72.181 43.2921 72.181 39.7228Z" fill="#ED1C24"/>
<path id="Vector_2" fill-rule="evenodd" clip-rule="evenodd" d="M78.7217 14.0469C77.2299 9.44136 74.361 5.64179 71.4922 1.95736C71.1479 1.38166 70.5741 0.80597 70.0003 0C69.3118 0.80597 68.8528 1.38166 68.3938 1.95736C65.5249 5.75693 62.7708 9.5565 61.1643 14.0469C59.3282 19.5736 61.1643 23.1429 66.7872 24.7548C69.5413 25.5608 69.5413 25.5608 69.5413 28.4392C69.5413 28.4392 69.5413 28.4392 69.5413 28.5544C69.1971 28.8998 68.9676 29.5906 68.6233 30.5117H71.2626C71.0331 29.5906 70.6889 28.8998 70.4594 28.5544C70.4594 28.5544 70.4594 28.5544 70.4594 28.4392C70.4594 25.5608 70.4594 25.5608 73.2135 24.7548C78.7217 23.258 80.6725 19.5736 78.7217 14.0469Z" fill="#ED1C24"/>
<path id="Vector_3" fill-rule="evenodd" clip-rule="evenodd" d="M68.7383 49.2793C69.0825 50.5458 69.5416 51.2367 70.0006 51.2367C70.4596 51.2367 70.9186 50.5458 71.2629 49.2793H68.7383Z" fill="#ED1C24"/>
</g>
<g id="Group_4">
<path id="Vector_4" fill-rule="evenodd" clip-rule="evenodd" d="M53.2464 37.6506C53.2464 34.657 53.0169 32.124 52.5578 30.2817H50.0332C49.5742 32.0088 49.3447 34.657 49.3447 37.6506C49.3447 40.6442 49.5742 43.4075 50.0332 45.1346H52.4431C53.0169 43.4075 53.2464 40.6442 53.2464 37.6506Z" fill="#F04E37"/>
<path id="Vector_5" fill-rule="evenodd" clip-rule="evenodd" d="M58.8691 15.7742C57.6068 11.8595 55.197 8.63562 52.7872 5.41174C52.4429 4.95119 51.9839 4.3755 51.4101 3.7998C50.8363 4.49064 50.4921 4.95119 50.0331 5.41174C47.6232 8.63562 45.2134 11.8595 43.9511 15.7742C42.3445 20.4949 43.9511 23.6036 48.7708 24.8702C51.0658 25.561 51.0658 25.561 51.0658 27.9789C50.8363 28.2092 50.4921 28.7849 50.3773 29.5908H52.5577C52.3281 28.7849 52.0986 28.2092 51.8691 27.9789C51.8691 25.561 51.8691 25.561 54.1642 24.8702C58.8691 23.6036 60.4757 20.4949 58.8691 15.7742Z" fill="#F04E37"/>
<path id="Vector_6" fill-rule="evenodd" clip-rule="evenodd" d="M50.2627 45.7104C50.607 46.7467 50.9512 47.3224 51.2955 47.3224C51.6397 47.3224 52.0988 46.7467 52.3283 45.7104H50.2627Z" fill="#F04E37"/>
</g>
<g id="Group_5">
<path id="Vector_7" fill-rule="evenodd" clip-rule="evenodd" d="M36.9509 35.923C36.9509 33.3899 36.7214 31.0871 36.3771 29.5903H34.1968C33.8526 31.0871 33.623 33.3899 33.623 35.923C33.623 38.5711 33.8526 40.8739 34.1968 42.3707H36.2624C36.7214 40.8739 36.9509 38.5711 36.9509 35.923Z" fill="#F7941D"/>
<path id="Vector_8" fill-rule="evenodd" clip-rule="evenodd" d="M41.7702 17.1555C40.6227 13.8165 38.5571 11.0532 36.4915 8.28987C36.1473 7.82931 35.803 7.4839 35.344 6.9082C34.885 7.4839 34.5407 7.94445 34.1964 8.28987C32.1309 11.0532 30.0653 13.8165 28.9178 17.1555C27.5407 21.1854 28.9178 23.8336 33.0489 24.985C35.1145 25.5607 35.1145 25.5607 34.9997 27.6332C34.7702 27.8634 34.5407 28.324 34.426 29.0148H36.3768C36.1473 28.324 36.0325 27.8634 35.6883 27.6332C35.6883 25.5607 35.6883 25.5607 37.6391 24.985C41.7702 23.8336 43.1473 21.1854 41.7702 17.1555Z" fill="#F7941D"/>
<path id="Vector_9" fill-rule="evenodd" clip-rule="evenodd" d="M34.4258 42.9468C34.6553 43.8679 34.9996 44.3284 35.3438 44.3284C35.6881 44.3284 36.0323 43.7527 36.2618 42.9468H34.4258Z" fill="#F7941D"/>
</g>
<g id="Group_6">
<path id="Vector_10" fill-rule="evenodd" clip-rule="evenodd" d="M106.262 35.923C106.262 33.3899 106.033 31.0871 105.689 29.5903H103.508C103.164 31.0871 102.935 33.3899 102.935 35.923C102.935 38.5711 103.164 40.8739 103.508 42.3707H105.574C106.033 40.8739 106.262 38.5711 106.262 35.923Z" fill="#92278F"/>
<path id="Vector_11" fill-rule="evenodd" clip-rule="evenodd" d="M111.082 17.1555C109.934 13.8165 107.869 11.0532 105.803 8.28987C105.459 7.82931 105.115 7.4839 104.656 6.9082C104.196 7.4839 103.852 7.94445 103.508 8.28987C101.442 11.0532 99.3768 13.8165 98.2293 17.1555C96.8522 21.1854 98.2293 23.8336 102.36 24.985C104.426 25.5607 104.426 25.5607 104.311 27.6332C104.082 27.8634 103.852 28.324 103.737 29.0148H105.574C105.344 28.324 105.229 27.8634 105 27.6332C105 25.5607 105 25.5607 106.951 24.985C111.082 23.8336 112.459 21.1854 111.082 17.1555Z" fill="#92278F"/>
<path id="Vector_12" fill-rule="evenodd" clip-rule="evenodd" d="M103.737 42.9468C103.967 43.8679 104.311 44.3284 104.655 44.3284C105 44.3284 105.344 43.7527 105.573 42.9468H103.737Z" fill="#92278F"/>
</g>
<g id="Group_7">
<path id="Vector_13" fill-rule="evenodd" clip-rule="evenodd" d="M120.032 34.4266C120.032 32.239 119.803 30.2817 119.573 29.0151H117.737C117.393 30.2817 117.278 32.239 117.278 34.4266C117.278 36.6143 117.508 38.6868 117.737 39.9533H119.573C119.803 38.6868 120.032 36.7294 120.032 34.4266Z" fill="#005BAA"/>
<path id="Vector_14" fill-rule="evenodd" clip-rule="evenodd" d="M124.164 18.4223C123.246 15.5438 121.41 13.1259 119.688 10.8232C119.459 10.4777 119.115 10.1323 118.656 9.55664C118.196 10.0172 117.967 10.3626 117.623 10.8232C115.787 13.1259 114.065 15.5438 113.147 18.4223C112 21.8765 113.147 24.1792 116.705 25.1003C118.426 25.5609 118.426 25.5609 118.426 27.4031C118.196 27.6334 118.082 27.9788 117.852 28.5545H119.459C119.344 27.9788 119.115 27.5183 118.885 27.4031C118.885 25.5609 118.885 25.5609 120.606 25.1003C124.049 24.0641 125.311 21.8765 124.164 18.4223Z" fill="#005BAA"/>
<path id="Vector_15" fill-rule="evenodd" clip-rule="evenodd" d="M117.853 40.4136C118.082 41.2195 118.312 41.6801 118.656 41.6801C119 41.6801 119.23 41.2195 119.459 40.4136H117.853Z" fill="#005BAA"/>
</g>
<g id="Group_8">
<path id="Vector_16" fill-rule="evenodd" clip-rule="evenodd" d="M22.8361 34.4266C22.8361 32.239 22.6066 30.2817 22.3771 29.0151H20.541C20.1968 30.2817 20.082 32.239 20.082 34.4266C20.082 36.6143 20.3115 38.6868 20.541 39.9533H22.3771C22.6066 38.6868 22.8361 36.7294 22.8361 34.4266Z" fill="#8DC63F"/>
<path id="Vector_17" fill-rule="evenodd" clip-rule="evenodd" d="M26.8527 18.4223C25.9346 15.5438 24.0986 13.1259 22.3772 10.8232C22.033 10.3626 21.8035 10.0172 21.3445 9.55664C21.0002 10.0172 20.6559 10.3626 20.4264 10.8232C18.5904 13.1259 16.869 15.5438 15.951 18.4223C14.8035 21.8765 15.951 24.1792 19.5084 25.1003C21.2297 25.5609 21.2297 25.5609 21.2297 27.4031C21.0002 27.6334 20.8854 27.9788 20.6559 28.5545H22.2625C22.1477 27.9788 21.9182 27.5183 21.6887 27.4031C21.6887 25.5609 21.6887 25.5609 23.41 25.1003C26.8527 24.0641 28.0002 21.8765 26.8527 18.4223Z" fill="#8DC63F"/>
<path id="Vector_18" fill-rule="evenodd" clip-rule="evenodd" d="M20.541 40.4136C20.7705 41.2195 21 41.6801 21.3443 41.6801C21.6886 41.6801 21.9181 41.2195 22.1476 40.4136H20.541Z" fill="#8DC63F"/>
</g>
<g id="Group_9">
<path id="Vector_19" fill-rule="evenodd" clip-rule="evenodd" d="M90.5413 37.6506C90.5413 34.657 90.3118 32.124 89.8528 30.2817H87.3282C86.8692 32.0088 86.6396 34.657 86.6396 37.6506C86.6396 40.6442 86.8692 43.4075 87.3282 45.1346H89.738C90.197 43.4075 90.5413 40.6442 90.5413 37.6506Z" fill="#ED145B"/>
<path id="Vector_20" fill-rule="evenodd" clip-rule="evenodd" d="M96.0498 15.7742C94.7875 11.8595 92.3777 8.63562 89.9678 5.41174C89.6236 4.95119 89.1645 4.3755 88.5908 3.7998C88.017 4.49064 87.6727 4.95119 87.2137 5.41174C84.8039 8.63562 82.3941 11.8595 81.1318 15.7742C79.5252 20.4949 81.1318 23.6036 85.9514 24.8702C88.2465 25.561 88.2465 25.561 88.2465 27.9789C88.017 28.2092 87.7875 28.7849 87.558 29.5908H89.7383C89.5088 28.7849 89.2793 28.2092 89.0498 27.9789C89.0498 25.561 89.0498 25.561 91.3449 24.8702C96.0498 23.6036 97.6563 20.4949 96.0498 15.7742Z" fill="#ED145B"/>
<path id="Vector_21" fill-rule="evenodd" clip-rule="evenodd" d="M87.5576 45.7104C87.9019 46.7467 88.2461 47.3224 88.5904 47.3224C88.9347 47.3224 89.3937 46.7467 89.6232 45.7104H87.5576Z" fill="#ED145B"/>
</g>
</g>
<g id="Group_10">
<path id="Vector_22" d="M60.2454 88.5415H58.5241C58.1799 88.5415 57.9504 88.7718 57.7208 89.1172L54.9667 94.8741C54.852 95.1044 54.852 95.1044 54.7372 95.1044C54.6225 95.1044 54.6225 94.9893 54.5077 94.8741L51.7536 89.1172C51.6389 88.7718 51.2946 88.5415 50.9504 88.5415H49.3438C49.1143 88.5415 48.9995 88.6566 48.8848 88.7718C48.77 88.8869 48.6553 89.1172 48.6553 89.2323V103.279C48.6553 103.394 48.6553 103.51 48.77 103.51C48.8848 103.51 48.8848 103.625 48.9995 103.625H51.4094C51.5241 103.625 51.5241 103.625 51.6389 103.51C51.6389 103.394 51.7536 103.279 51.7536 103.279V94.8741C51.7536 94.759 51.7536 94.759 51.8684 94.759C51.8684 94.759 51.9831 94.759 51.9831 94.8741L53.5897 98.2131C53.7045 98.4434 53.934 98.5586 54.1635 98.5586H55.6553C55.8848 98.5586 56.1143 98.4434 56.229 98.2131L57.8356 94.8741C57.8356 94.759 57.9504 94.759 57.9504 94.759C58.0651 94.759 58.0651 94.759 58.0651 94.8741V103.279C58.0651 103.394 58.0651 103.51 58.1799 103.51C58.1799 103.625 58.2946 103.625 58.4094 103.625H60.8192C60.934 103.625 60.934 103.625 61.0487 103.51C61.1635 103.51 61.1635 103.394 61.1635 103.279V89.2323C61.1635 89.0021 61.0487 88.8869 60.934 88.7718C60.5897 88.5415 60.4749 88.5415 60.2454 88.5415Z" fill="black"/>
<path id="Vector_23" d="M72.2956 89.8078C71.8365 89.2321 71.2628 88.8867 70.5743 88.6565C69.8857 88.4262 69.1972 88.311 68.5087 88.311C67.7054 88.311 67.0169 88.4262 66.4431 88.6565C65.7546 88.8867 65.1808 89.2321 64.7218 89.8078C64.2628 90.3835 63.8038 90.9592 63.5743 91.7652C63.3447 92.5712 63.1152 93.6074 63.1152 94.7588V97.1767C63.1152 98.3281 63.23 99.3643 63.5743 100.17C63.8038 100.976 64.2628 101.667 64.7218 102.128C65.1808 102.703 65.7546 103.049 66.4431 103.279C67.1316 103.509 67.8202 103.624 68.5087 103.624C69.312 103.624 70.0005 103.509 70.5743 103.279C71.2628 103.049 71.8365 102.703 72.2956 102.128C72.7546 101.552 73.2136 100.976 73.4431 100.17C73.6726 99.3643 73.9021 98.3281 73.9021 97.1767V94.7588C73.9021 93.6074 73.7874 92.5712 73.4431 91.7652C73.2136 91.0744 72.7546 90.3835 72.2956 89.8078ZM70.8038 97.2918C70.8038 98.5584 70.5743 99.3643 70.23 99.94C69.8857 100.516 69.312 100.746 68.5087 100.746C67.7054 100.746 67.1316 100.516 66.7874 99.94C66.4431 99.3643 66.2136 98.5584 66.2136 97.2918V94.8739C66.2136 93.6074 66.4431 92.8014 66.7874 92.2257C67.1316 91.6501 67.7054 91.4198 68.5087 91.4198C69.312 91.4198 69.8857 91.6501 70.23 92.2257C70.5743 92.8014 70.8038 93.6074 70.8038 94.8739V97.2918Z" fill="black"/>
<path id="Vector_24" d="M86.4099 88.5415H84.0001C83.8853 88.5415 83.7706 88.5415 83.7706 88.6566C83.7706 88.7718 83.7706 88.7718 83.7706 88.8869V94.2984H79.1804V88.8869C79.1804 88.7718 79.1804 88.6566 79.0656 88.6566C78.9509 88.5415 78.9509 88.5415 78.8361 88.5415H76.4263C76.3115 88.5415 76.1968 88.5415 76.1968 88.6566C76.082 88.7718 76.082 88.7718 76.082 88.8869V103.164C76.082 103.279 76.082 103.394 76.1968 103.394C76.3115 103.51 76.3115 103.51 76.4263 103.51H78.8361C78.9509 103.51 79.0656 103.51 79.0656 103.394C79.1804 103.279 79.1804 103.164 79.1804 103.164V97.292H83.7706V103.164C83.7706 103.279 83.7705 103.394 83.8853 103.394C84.0001 103.51 84.0001 103.51 84.1148 103.51H86.5247C86.6394 103.51 86.7542 103.51 86.7542 103.394C86.8689 103.279 86.8689 103.164 86.8689 103.164V88.8869C86.8689 88.7718 86.8689 88.6566 86.7542 88.6566C86.6394 88.5415 86.5247 88.5415 86.4099 88.5415Z" fill="black"/>
<path id="Vector_25" d="M97.8849 88.5415H88.9341C88.8194 88.5415 88.7046 88.5415 88.7046 88.6566C88.5899 88.7718 88.5898 88.7718 88.5898 88.8869V90.9594C88.5898 91.0746 88.5899 91.1897 88.7046 91.1897C88.8194 91.3048 88.8194 91.3048 88.9341 91.3048H91.9177V103.049C91.9177 103.164 91.9177 103.279 92.0325 103.279C92.1472 103.394 92.1472 103.394 92.262 103.394H94.6718C94.7866 103.394 94.9013 103.394 94.9013 103.279C95.0161 103.164 95.0161 103.049 95.0161 103.049V91.42H97.9997C98.1144 91.42 98.2292 91.42 98.2292 91.3048C98.3439 91.1897 98.3439 91.1897 98.3439 91.0745V89.0021C98.3439 88.8869 98.3439 88.7718 98.2292 88.7718C98.1144 88.5415 97.9997 88.5415 97.8849 88.5415Z" fill="black"/>
<path id="Vector_26" d="M108.328 95.2195C107.869 94.8741 107.18 94.6438 106.492 94.5287C105.803 94.4136 105.115 94.2984 104.311 94.2984C104.082 94.2984 103.852 94.2984 103.738 94.2984C103.508 94.2984 103.279 94.2984 103.164 94.2984V88.8869C103.164 88.7718 103.164 88.6566 103.049 88.6566C102.934 88.5415 102.934 88.5415 102.82 88.5415H100.41C100.295 88.5415 100.18 88.5415 100.18 88.6566C100.065 88.7718 100.065 88.8869 100.065 88.8869V102.128C100.065 102.588 100.18 102.934 100.295 103.049C100.41 103.279 100.754 103.394 101.098 103.394C101.328 103.394 101.442 103.51 101.787 103.51C102.016 103.51 102.361 103.51 102.59 103.625C102.934 103.625 103.164 103.625 103.508 103.625C103.852 103.625 104.082 103.625 104.426 103.625C105.229 103.625 105.918 103.51 106.606 103.394C107.295 103.279 107.869 103.049 108.442 102.704C108.901 102.358 109.361 101.898 109.705 101.207C110.049 100.631 110.164 99.8251 110.164 98.904V98.7888C110.164 97.8677 110.049 97.0618 109.705 96.4861C109.246 96.0255 108.901 95.565 108.328 95.2195ZM107.065 99.0191C107.065 99.3645 107.065 99.5948 106.951 99.8251C106.836 100.055 106.721 100.286 106.492 100.401C106.262 100.516 106.033 100.631 105.574 100.746C105.229 100.861 104.77 100.861 104.197 100.861C103.967 100.861 103.852 100.861 103.738 100.861C103.623 100.861 103.508 100.861 103.508 100.861C103.393 100.861 103.393 100.861 103.279 100.861C103.279 100.861 103.164 100.861 103.049 100.861V97.1769C103.164 97.1769 103.164 97.1769 103.279 97.1769C103.279 97.1769 103.393 97.1769 103.508 97.1769C103.623 97.1769 103.623 97.1769 103.738 97.1769C103.852 97.1769 103.967 97.1769 104.197 97.1769C104.77 97.1769 105.229 97.1769 105.574 97.292C105.918 97.4072 106.262 97.4072 106.492 97.6375C106.721 97.7526 106.836 97.9829 106.951 98.2131C107.065 98.4434 107.065 98.6737 107.065 99.0191Z" fill="black"/>
<path id="Vector_27" d="M114.066 88.5415H111.656C111.426 88.5415 111.312 88.6566 111.312 88.8869V103.164C111.312 103.279 111.312 103.394 111.426 103.394C111.541 103.51 111.541 103.51 111.656 103.51H114.066C114.18 103.51 114.295 103.51 114.295 103.394C114.41 103.279 114.41 103.164 114.41 103.164V88.8869C114.41 88.6566 114.295 88.5415 114.066 88.5415Z" fill="black"/>
<path id="Vector_28" d="M42.3446 88.311C38.9019 88.311 37.6396 90.1533 37.6396 96.0253C37.6396 101.897 38.9019 103.74 42.5741 103.74C43.7216 103.74 44.9839 103.624 46.1315 103.279C46.2462 103.279 46.2462 103.049 46.2462 102.934L45.9019 100.516C45.9019 100.401 45.7872 100.285 45.6724 100.401C44.8692 100.746 43.7216 100.976 42.5741 100.976C40.738 100.976 40.5085 100.285 40.5085 96.8313H46.4757C46.5905 96.8313 46.7052 96.7162 46.7052 96.4859C46.7052 89.8078 45.6724 88.311 42.3446 88.311ZM40.5085 94.1831C40.6233 91.5349 40.738 90.9592 42.2298 90.9592C43.7216 90.9592 43.8364 91.4198 43.9511 94.1831H40.5085Z" fill="black"/>
<path id="Vector_29" d="M30.5248 88.311C29.7215 88.311 28.9182 88.4262 28.1149 88.5413C27.3117 88.6565 26.6231 88.7716 26.0494 89.0019C25.7051 89.117 25.5903 89.2321 25.5903 89.2321C25.5903 89.3473 25.4756 89.4624 25.4756 89.5776V107.654C25.4756 107.769 25.4756 107.885 25.5903 107.885C25.7051 108 25.7051 108 25.8198 108H28.3444C28.3444 108 28.4592 108 28.4592 107.885C28.5739 107.769 28.5739 107.769 28.5739 107.654V102.934H28.8035C29.1477 102.934 29.3772 103.049 29.7215 103.049C30.0657 103.049 30.2953 103.049 30.5248 103.049C32.2461 103.049 33.5084 102.473 34.4264 101.322C35.2297 100.17 35.6887 98.5584 35.6887 96.601V94.5285C35.6887 92.456 35.2297 90.8441 34.3116 89.8078C33.5084 88.7716 32.2461 88.311 30.5248 88.311ZM32.5903 96.7162C32.5903 97.1767 32.5903 97.6373 32.4756 97.9827C32.3608 98.3281 32.3608 98.7887 32.1313 99.0189C32.0166 99.3643 31.7871 99.5946 31.5576 99.7098C31.328 99.94 30.9838 99.94 30.5248 99.94C30.2953 99.94 29.951 99.94 29.6067 99.94C29.2625 99.94 29.033 99.8249 28.6887 99.8249H28.5739V91.5349H28.6887C28.9182 91.5349 29.1477 91.4198 29.492 91.4198C29.8362 91.4198 30.1805 91.4198 30.5248 91.4198C30.9838 91.4198 31.328 91.5349 31.5576 91.6501C31.7871 91.7652 32.0166 92.1106 32.1313 92.3409C32.2461 92.6863 32.3608 93.0317 32.4756 93.3771C32.4756 93.7226 32.5903 94.1831 32.5903 94.6437V96.7162Z" fill="black"/>
<path id="Vector_30" d="M11.8197 70.58L17.6721 59.4115C17.6721 59.2964 17.7869 59.2964 17.7869 59.1813C17.7869 59.0661 17.7869 58.951 17.6721 58.951C17.5574 58.8358 17.4426 58.8358 17.3279 58.8358H13.082C12.9672 58.8358 12.7377 58.951 12.623 59.0661C12.5082 59.1813 12.3934 59.2964 12.2787 59.5267L9.18033 65.7442L5.73771 59.4115C5.62295 59.2964 5.5082 59.1813 5.39344 58.951C5.27869 58.8358 5.16393 58.7207 5.04918 58.7207H0.459016C0.344262 58.7207 0.229508 58.7207 0.114754 58.8358C0 59.0661 0 59.0661 0 59.1813C0 59.1813 0 59.2964 0 59.4115L6.08197 70.2346L0.114754 81.6333C0.114754 81.7484 0.114754 81.7484 0.114754 81.8636C0.114754 82.0938 0.229508 82.3241 0.573771 82.3241H4.81967C4.93443 82.3241 5.04918 82.3241 5.16393 82.0938C5.27869 81.9787 5.39344 81.8636 5.5082 81.6333L8.83607 75.0704L12.5082 81.7484C12.623 81.8636 12.7377 82.0938 12.8525 82.0938C12.9672 82.209 13.082 82.209 13.3115 82.209H17.7869C18.0164 82.209 18.1311 82.0938 18.1311 81.8636C18.1311 81.7484 18.1311 81.6333 18.0164 81.5181L11.8197 70.58Z" fill="black"/>
<path id="Vector_31" d="M33.2784 60.793C32.4751 59.987 31.6718 59.4113 30.639 59.0659C29.6062 58.7205 28.5734 58.4902 27.3111 58.4902C26.1636 58.4902 25.0161 58.7205 23.9833 59.0659C22.9505 59.4113 22.0325 59.987 21.3439 60.793C20.5406 61.599 19.9669 62.6352 19.5079 63.9017C19.0488 65.1683 18.8193 66.7802 18.8193 68.6224V72.422C18.8193 74.2642 19.0488 75.761 19.5079 77.1427C19.9669 78.4092 20.5406 79.4455 21.3439 80.2514C22.1472 81.0574 22.9505 81.6331 23.9833 81.9785C25.0161 82.3239 26.0488 82.5542 27.3111 82.5542C28.4587 82.5542 29.6062 82.3239 30.639 81.9785C31.6718 81.6331 32.5898 81.0574 33.2784 80.2514C34.0816 79.4455 34.6554 78.4092 35.1144 77.1427C35.5734 75.8762 35.8029 74.2642 35.8029 72.422V68.6224C35.8029 66.7802 35.5734 65.2834 35.1144 63.9017C34.5406 62.7504 33.9669 61.599 33.2784 60.793ZM30.8685 72.422C30.8685 74.3794 30.5243 75.761 29.9505 76.567C29.3767 77.373 28.4587 77.8335 27.3111 77.8335C26.1636 77.8335 25.2456 77.373 24.6718 76.567C24.098 75.761 23.8685 74.3794 23.8685 72.422V68.6224C23.8685 66.6651 24.098 65.2834 24.6718 64.4774C25.2456 63.6715 26.1636 63.2109 27.3111 63.2109C28.4587 63.2109 29.3767 63.6715 29.9505 64.4774C30.5243 65.2834 30.8685 66.6651 30.8685 68.6224V72.422Z" fill="black"/>
<path id="Vector_32" d="M71.4922 60.793C70.6889 59.987 69.8857 59.4113 68.8529 59.0659C67.8201 58.7205 66.7873 58.4902 65.525 58.4902C64.2627 58.4902 63.2299 58.7205 62.1971 59.0659C61.1644 59.4113 60.2463 59.987 59.5578 60.793C58.7545 61.599 58.1807 62.6352 57.7217 63.9017C57.2627 65.1683 57.0332 66.7802 57.0332 68.6224V72.422C57.0332 74.2642 57.2627 75.761 57.7217 77.1427C58.1807 78.4092 58.7545 79.4455 59.5578 80.2514C60.3611 81.0574 61.1644 81.6331 62.1971 81.9785C63.2299 82.3239 64.2627 82.5542 65.525 82.5542C66.7873 82.5542 67.8201 82.3239 68.8529 81.9785C69.8857 81.6331 70.8037 81.0574 71.4922 80.2514C72.2955 79.4455 72.8693 78.4092 73.3283 77.1427C73.7873 75.8762 74.0168 74.2642 74.0168 72.422V68.6224C74.0168 66.7802 73.7873 65.2834 73.3283 63.9017C72.8693 62.7504 72.2955 61.599 71.4922 60.793ZM69.0824 72.422C69.0824 74.3794 68.7381 75.761 68.1644 76.567C67.5906 77.373 66.6725 77.8335 65.525 77.8335C64.3775 77.8335 63.4594 77.373 62.8857 76.567C62.3119 75.761 62.0824 74.3794 62.0824 72.422V68.6224C62.0824 66.6651 62.3119 65.2834 62.8857 64.4774C63.4594 63.6715 64.3775 63.2109 65.525 63.2109C66.6725 63.2109 67.5906 63.6715 68.1644 64.4774C68.7381 65.2834 69.0824 66.6651 69.0824 68.6224V72.422Z" fill="black"/>
<path id="Vector_33" d="M101.214 78.4094C101.328 77.6034 101.443 76.7975 101.443 75.8764V59.4115C101.443 59.2964 101.443 59.0661 101.328 58.951C101.214 58.8358 101.099 58.7207 100.984 58.7207H97.3119C97.1972 58.7207 97.0824 58.8358 96.9677 58.951C96.8529 59.0661 96.8529 59.1813 96.8529 59.4115V75.9915C96.8529 76.2218 96.8529 76.452 96.8529 76.6823C96.8529 76.9126 96.8529 77.0277 96.7382 77.258C96.6234 77.3732 96.5086 77.4883 96.3939 77.6034C96.2791 77.7186 95.9349 77.7186 95.7054 77.7186H92.2627V59.4115C92.2627 59.2964 92.2627 59.0661 92.148 58.951C92.0332 58.8358 91.9185 58.7207 91.8037 58.7207H88.1316C88.0168 58.7207 87.9021 58.8358 87.7873 58.951C87.6726 59.0661 87.6726 59.1813 87.6726 59.4115V77.6034H84.23C83.8857 77.6034 83.6562 77.6034 83.5414 77.4883C83.4267 77.3732 83.3119 77.258 83.1972 77.1429C83.0824 77.0277 83.0824 76.7975 83.0824 76.5672C83.0824 76.3369 83.0824 76.1066 83.0824 75.8764V59.4115C83.0824 59.2964 83.0824 59.0661 82.9677 58.951C82.8529 58.8358 82.7382 58.7207 82.6234 58.7207H78.0332C77.9185 58.7207 77.8037 58.8358 77.689 58.951C77.5742 59.0661 77.5742 59.1813 77.5742 59.4115V75.9915C77.5742 76.9126 77.689 77.7186 77.8037 78.5245C77.9185 79.3305 78.2627 80.0213 78.7218 80.4819C79.1808 81.0576 79.7545 81.5181 80.5578 81.8636C81.3611 82.209 82.2791 82.3241 83.5414 82.3241H95.7054C96.9677 82.3241 97.8857 82.209 98.689 81.8636C99.4923 81.5181 100.066 81.0576 100.525 80.4819C100.755 79.9062 101.099 79.2154 101.214 78.4094Z" fill="black"/>
<path id="Vector_34" d="M121.066 58.8358H118.197C117.967 58.8358 117.738 58.951 117.508 59.0661C117.393 59.1813 117.164 59.5267 117.049 59.757L110.279 72.7676C110.164 72.8828 110.164 72.9979 110.049 72.9979C109.934 72.9979 109.934 72.8828 109.934 72.7676V59.4115C109.934 59.2964 109.82 59.0661 109.82 58.951C109.705 58.8358 109.59 58.7207 109.475 58.7207H106.147C106.033 58.7207 105.918 58.8358 105.803 58.951C105.688 59.0661 105.688 59.1813 105.688 59.4115V81.0576C105.688 81.403 105.803 81.6333 106.033 81.8636C106.262 82.0938 106.492 82.209 106.836 82.209H109.59C109.934 82.209 110.164 82.209 110.393 81.9787C110.623 81.8636 110.852 81.6333 111.082 81.1727L117.508 68.7378C117.623 68.6226 117.738 68.5075 117.738 68.5075C117.852 68.5075 117.852 68.6226 117.852 68.7378V81.5181C117.852 81.6333 117.852 81.8636 117.967 81.9787C118.082 82.0938 118.197 82.209 118.311 82.209H121.639C121.754 82.209 121.869 82.0938 121.984 81.9787C122.098 81.8636 122.098 81.7484 122.098 81.5181V59.9872C122.098 59.6418 121.984 59.4115 121.754 59.1813C121.639 58.951 121.41 58.8358 121.066 58.8358Z" fill="black"/>
<path id="Vector_35" d="M133.23 58.8354C128.066 58.8354 126 61.5988 126 70.4644C126 79.4453 127.836 82.2086 133.459 82.2086C135.295 82.2086 137.246 81.9783 138.967 81.5178C139.082 81.5178 139.197 81.1723 139.082 80.9421L138.508 77.2576C138.508 77.0273 138.279 76.9122 138.164 77.0273C137.016 77.603 135.066 77.8333 133.459 77.8333C130.705 77.8333 130.361 76.7971 130.361 71.6158H139.426C139.541 71.6158 139.885 71.3856 139.885 71.0401C140 61.1382 138.393 58.8354 133.23 58.8354ZM130.59 67.8163C130.705 63.6713 130.934 62.9804 133.23 62.9804C135.525 62.9804 135.754 63.7864 135.754 67.8163H130.59Z" fill="black"/>
<path id="Vector_36" d="M38.6724 86.6992H42.8035C42.9183 86.6992 42.9183 86.6992 43.033 86.584C43.1478 86.4689 43.1478 86.3538 43.1478 86.1235V83.8207V82.0936H43.4921C43.9511 82.2088 44.4101 82.2088 44.9839 82.3239C45.4429 82.3239 45.9019 82.4391 46.2462 82.4391C49.0003 82.4391 51.0658 81.518 52.4429 79.6757C53.8199 77.8335 54.5084 75.3005 54.5084 72.0766V68.8527C54.5084 65.5137 53.8199 62.9806 52.3281 61.1384C50.9511 59.4113 48.8855 58.4902 46.2462 58.4902C44.9839 58.4902 43.6068 58.6054 42.4593 58.8356C41.197 59.0659 40.0494 59.2962 39.1314 59.6416C38.5576 59.7568 38.4429 59.987 38.4429 59.987C38.3281 60.1022 38.3281 60.3325 38.3281 60.5627V81.8634V83.9359V86.2386C38.3281 86.3538 38.3281 86.4689 38.4429 86.584C38.4429 86.6992 38.5576 86.6992 38.6724 86.6992ZM43.1478 63.7866H43.3773C43.7216 63.6715 44.1806 63.6715 44.6396 63.6715C45.0986 63.6715 45.6724 63.5563 46.2462 63.5563C46.9347 63.5563 47.5085 63.6715 47.8527 64.0169C48.3117 64.2472 48.656 64.7077 48.8855 65.1683C49.115 65.6288 49.3445 66.2045 49.3445 66.7802C49.4593 67.3559 49.4593 68.0467 49.4593 68.8527V72.0766C49.4593 72.7674 49.4593 73.4583 49.3445 74.1491C49.2298 74.8399 49.115 75.4156 48.8855 75.8762C48.656 76.3367 48.3117 76.7973 47.8527 77.0275C47.3937 77.373 46.8199 77.4881 46.2462 77.4881C45.7871 77.4881 45.3281 77.4881 44.8691 77.373C44.2953 77.373 43.8363 77.2578 43.4921 77.2578H43.2625V63.7866H43.1478Z" fill="black"/>
</g>
</g>
</g>
<defs>
<clipPath id="clip0_3500_553">
<rect width="140" height="108" fill="white"/>
</clipPath>
</defs>
</svg>
