<svg width="26" height="24" viewBox="0 0 26 24" fill="none" xmlns="http://www.w3.org/2000/svg">
<g id="measure-tape 1" clip-path="url(#clip0_3500_618)">
<g id="Group">
<path id="Vector" d="M13 12.0003V8.47087C13 7.1208 12.3284 5.86146 11.1088 4.92485C8.68564 3.06386 4.81539 3.06306 2.39118 4.92485C1.17162 5.86146 0.5 7.1208 0.5 8.47087V14.1179C0.5 17.621 3.46868 20.4709 7.11765 20.4709H25.5V12.0003H13ZM6.75 4.94146C9.38539 4.94146 11.5294 6.52476 11.5294 8.47087V12.0003H6.75C4.11461 12.0003 1.97059 10.417 1.97059 8.47087C1.97059 6.52476 4.11461 4.94146 6.75 4.94146ZM1.97059 14.1179V11.6609C3.13054 12.7433 4.7352 13.3284 6.3823 13.4033V13.412H20.3529V19.0591H18.147V16.9414H16.6764V19.0591H14.4705V16.2355H13V19.0591H10.7941V16.9414H9.32348V19.0591H7.1176C4.27956 19.0591 1.97059 16.8425 1.97059 14.1179ZM24.0294 19.0591H21.8235V13.4121H24.0294V19.0591Z" fill="white"/>
<path id="Vector_2" d="M4.47155 9.9831C5.75508 10.7899 7.74405 10.7907 9.02891 9.9831C9.68356 9.57157 10.0591 9.02038 10.0591 8.47077C10.0591 7.92118 9.68356 7.36997 9.02891 6.95845C7.74538 6.15162 5.75641 6.15082 4.47155 6.95845C3.8169 7.36997 3.44141 7.92118 3.44141 8.47077C3.44141 9.02038 3.8169 9.57157 4.47155 9.9831ZM6.75023 7.76489C7.8365 7.76489 8.47915 8.25214 8.58077 8.47077C8.47915 8.68941 7.8365 9.17666 6.75023 9.17666C5.66396 9.17666 5.02126 8.68941 4.91969 8.47077C5.02126 8.25214 5.66396 7.76489 6.75023 7.76489Z" fill="white"/>
</g>
</g>
<defs>
<clipPath id="clip0_3500_618">
<rect width="25" height="24" fill="white" transform="translate(0.5)"/>
</clipPath>
</defs>
</svg>
