<svg width="20" height="20" viewBox="0 0 20 20" fill="none" xmlns="http://www.w3.org/2000/svg">
<g id="map-point 1" clip-path="url(#clip0_3500_2070)">
<path id="Vector" d="M15.698 2.46793L15.6863 2.45559C14.1761 0.87207 12.1577 0 10.0027 0C7.84465 0 5.82234 0.874258 4.3084 2.46176C1.19246 5.72898 1.18984 11.0424 4.3025 14.3062L9.54797 19.8064C9.66594 19.9301 9.82938 20 10.0003 20C10.1712 20 10.3346 19.9301 10.4526 19.8064L15.6922 14.3124C18.8081 11.0452 18.8107 5.73176 15.698 2.46793ZM14.7876 13.4497L10.0003 18.4694L5.20707 13.4435C2.54805 10.6554 2.5507 6.11598 5.21297 3.32441C6.48875 1.98672 8.18981 1.25 10.0027 1.25C11.8125 1.25 13.5097 1.98453 14.7816 3.31824L14.7934 3.33059C17.4525 6.11875 17.4498 10.6582 14.7876 13.4497ZM10.0003 4.36609C7.78176 4.36609 5.97684 6.17102 5.97684 8.38953C5.97684 10.608 7.78176 12.413 10.0003 12.413C12.2188 12.413 14.0237 10.608 14.0237 8.38953C14.0237 6.17102 12.2188 4.36609 10.0003 4.36609ZM10.0003 11.163C8.47098 11.163 7.22684 9.91879 7.22684 8.38953C7.22684 6.86027 8.47102 5.61609 10.0003 5.61609C11.5295 5.61609 12.7737 6.86027 12.7737 8.38953C12.7737 9.91883 11.5296 11.163 10.0003 11.163Z" fill="#ED145B"/>
</g>
<defs>
<clipPath id="clip0_3500_2070">
<rect width="20" height="20" fill="white"/>
</clipPath>
</defs>
</svg>
