<svg width="36" height="36" viewBox="0 0 36 36" fill="none" xmlns="http://www.w3.org/2000/svg">
<g id="Group 3761">
<circle id="Ellipse 206" cx="18" cy="18" r="18" fill="#778CEB"/>
<g id="01 align center">
<path id="Vector" d="M25.225 26.1001H25.125H23.6806H23.5806V26.0001V22.4281C23.58 21.8998 23.3658 21.393 22.9844 21.0189C22.6029 20.6448 22.0853 20.434 21.5449 20.4334C21.5449 20.4334 21.5449 20.4334 21.5448 20.4334M25.225 26.1001L21.5449 20.3334L21.5448 20.4334M25.225 26.1001V26.0001V22.428V22.4278C25.2238 21.4698 24.8353 20.5518 24.1452 19.875C23.4552 19.1983 22.5201 18.8179 21.5451 18.8167H21.5449L15.7051 18.8167L15.7049 18.8167C14.7299 18.8179 13.7948 19.1983 13.1048 19.875C12.4147 20.5518 12.0262 21.4698 12.025 22.4278V22.428V26.0001V26.1001H12.125H13.5694H13.6694V26.0001L13.6694 22.4281L25.225 26.1001ZM21.5448 20.4334H15.7052M21.5448 20.4334H15.7052M15.7052 20.4334L15.7051 20.4334L15.7052 20.4334Z" fill="white" stroke="white" stroke-width="0.2"/>
<path id="Vector_2" d="M18.6244 17.6H18.6244C19.7992 17.5989 20.926 17.1407 21.7572 16.3254C22.5886 15.51 23.0565 14.404 23.0577 13.2501V13.25C23.0577 12.3892 22.7974 11.5479 22.31 10.8325C21.8227 10.1171 21.1301 9.55987 20.3203 9.23087C19.5104 8.90187 18.6194 8.81582 17.7598 8.98351C16.9002 9.15121 16.1103 9.5652 15.4902 10.1734C14.87 10.7816 14.4475 11.5568 14.2763 12.401C14.1051 13.2452 14.193 14.1202 14.5288 14.9153C14.8645 15.7104 15.433 16.3896 16.1621 16.8674C16.8911 17.3451 17.7479 17.6 18.6244 17.6ZM17.0742 10.9778C17.5329 10.6772 18.0723 10.5167 18.6244 10.5167C19.3646 10.5167 20.0742 10.8051 20.5971 11.3179C21.1199 11.8307 21.4132 12.5257 21.4132 13.25C21.4132 13.7902 21.2499 14.3184 20.9437 14.7678C20.6375 15.2173 20.2021 15.5679 19.6922 15.775C19.1824 15.9821 18.6213 16.0364 18.0799 15.9307C17.5385 15.8251 17.0415 15.5645 16.6516 15.1821C16.2617 14.7997 15.9964 14.3127 15.889 13.7829C15.7815 13.2531 15.8367 12.7039 16.0475 12.2046C16.2583 11.7054 16.6155 11.2784 17.0742 10.9778Z" fill="white" stroke="white" stroke-width="0.2"/>
</g>
</g>
</svg>
